<?xml version="1.0" encoding="UTF-8"?>
<svg id="Livello_2" data-name="Livello 2" xmlns="http://www.w3.org/2000/svg" viewBox="0 0 162.35 79.96">
  <defs>
    <style>
      .cls-1 {
        fill: #1d1d1b;
      }

      .cls-1, .cls-2 {
        stroke-width: 0px;
      }

      .cls-2 {
        fill: #009ba4;
      }
    </style>
  </defs>
  <g id="Livello_1-2" data-name="Livello 1">
    <path class="cls-2" d="M85.03,66.56c-5.24-7.45-8.43-17.48-8.43-26.8,0-6.12,1.33-12.51,3.73-18.19,1.15-2.84,2.66-5.5,4.44-8.08,2.31-3.2,3.91-4.97,8.08-8.88l-3.73-4.61c-5.15,4.79-7.01,6.83-9.85,11-5.86,8.61-8.87,18.46-8.87,28.75,0,7.28,1.6,14.73,4.7,21.57,1.51,3.28,3.28,6.39,5.41,9.14,2.66,3.55,4.35,5.32,9.14,9.5l3.64-4.53c-4.35-3.9-5.95-5.5-8.25-8.88"/>
    <path class="cls-1" d="M45.4,27.78c.01,1.73.01,2.41.02,4.3l-8.24-.03.02-7.15h4.73c-9.36-5.61-23.64-5.83-33.48,0,3.79.04,6.94.07,11.53-.02l.03,6.98h-7.23v1.93l7.2.02.03,7.52h-7.12v2.2l7.14-.03.03,6.91h-11.34c3.71,2.32,7.93,3.4,12.33,4.06,1.51,1.9,2.52,4.1,4.18,5.88,1.28-1.97,2.59-3.91,3.91-5.88,4.37-.66,9.03-1.93,12.7-4.25-1.93.07-2.66.02-4.56.03l.02-16.66,8.16.02v13.82c1.69-1.4,3.39-3.82,4.13-7.86.55-4.77-.78-8.96-4.18-11.8ZM34.9,50.25h-12.6v-25.33h7.7v18.51l4.91-.03v6.84Z"/>
    <path class="cls-1" d="M4.67,47.47c-2.76-2.05-5.99-7.33-4.1-14,.67-2.22,2.09-4.25,4.1-5.84v19.84Z"/>
    <path class="cls-1" d="M98.26,32.07v3.27h-1.29v-9.96h3.23c2.35,0,3.85.93,3.85,3.27s-1.44,3.42-3.82,3.42h-1.96ZM98.26,30.98h1.86c1.69,0,2.59-.66,2.59-2.33s-.94-2.16-2.58-2.16h-1.88v4.48Z"/>
    <path class="cls-1" d="M110.49,34.62c-.52.33-1.46.89-2.34.89-1.47,0-2.4-1.32-2.4-2.83v-4.65h1.25v4.52c0,.87.52,1.81,1.41,1.81.69,0,1.56-.51,2.02-.8v-5.53h1.25v7.32h-1.15l-.03-.72Z"/>
    <path class="cls-1" d="M113.65,25.07l1.24-.05v3.58c.53-.3,1.38-.73,2.04-.73,2.02,0,2.96,1.29,2.96,3.79s-1.12,3.84-3,3.84c-.88,0-2.01-.65-2.01-.65l-.06.48h-1.17v-10.27ZM114.89,29.72v4.14s1.06.54,1.81.54c1.26,0,1.91-1.05,1.91-2.73,0-1.85-.6-2.65-1.85-2.65-.46,0-1.4.4-1.88.7Z"/>
    <path class="cls-1" d="M121.97,25.07l1.25-.05v8.83c0,.36.18.54.42.54.19,0,.58-.06.78-.12l.15,1.02c-.42.1-.92.21-1.22.21-.88,0-1.38-.51-1.38-1.47v-8.97Z"/>
    <path class="cls-1" d="M127.37,26.78h-1.27v-1.44h1.27v1.44ZM127.35,28.02h-1.25v7.32h1.25v-7.32Z"/>
    <path class="cls-1" d="M134.48,30.38c-.27-1.06-.85-1.46-2.02-1.46-1.24,0-1.89.44-1.89,1.06s.45.78,2.13,1.1c1.98.34,2.92.82,2.92,2.07,0,1.5-1.17,2.35-3.23,2.35s-2.98-.66-3.34-2.35l1.2-.15c.28,1.09.84,1.44,2.14,1.44s1.97-.41,1.97-1.11c0-.65-.54-.84-2.1-1.12-2.1-.39-2.96-.84-2.96-2.08,0-1.37,1.25-2.25,3.1-2.25s2.79.58,3.23,2.23l-1.16.27Z"/>
    <path class="cls-1" d="M138.53,28.71c.46-.27,1.46-.84,2.27-.84,1.41,0,2.43,1.29,2.43,2.77v4.69h-1.25v-4.51c0-.84-.6-1.81-1.44-1.81-.66,0-1.54.51-2.01.79v5.53h-1.25v-10.27l1.25-.05v3.69Z"/>
    <path class="cls-1" d="M146.49,26.78h-1.27v-1.44h1.27v1.44ZM146.48,28.02h-1.25v7.32h1.25v-7.32Z"/>
    <path class="cls-1" d="M149.73,28.74c.51-.31,1.5-.87,2.32-.87,1.43,0,2.42,1.33,2.42,2.82v4.65h-1.25v-4.5c0-.85-.58-1.83-1.44-1.83-.67,0-1.54.51-2.01.78v5.55h-1.25v-7.32h1.17l.03.72Z"/>
    <path class="cls-1" d="M162.35,34.7c0,2.92-1.14,3.93-3.12,3.93-1.7,0-2.69-.66-3.03-2.07l1.17-.21c.27.87.77,1.23,1.86,1.23,1.21,0,1.87-.6,1.87-2.77v-.21c-.52.31-1.39.75-2.05.75-2.02,0-2.96-1.31-2.96-3.63s1.14-3.84,3-3.84c.9,0,2.02.62,2.02.62l.06-.48h1.17v6.69ZM161.1,33.47v-3.88s-1.09-.6-1.83-.6c-1.26,0-1.91,1.06-1.91,2.75s.6,2.47,1.85,2.47c.46,0,1.42-.43,1.89-.73Z"/>
    <path class="cls-1" d="M101.37,44.98h3.71v.57c0,3.03-1.48,4.47-4.12,4.47-3.03,0-4.33-1.8-4.33-5.11,0-3.08,1.33-5.17,4.35-5.17,2.22,0,3.38.9,3.99,2.88l-1.27.29c-.4-1.37-1.12-2.01-2.7-2.01-2.29,0-3.06,1.62-3.06,4.02s.77,3.96,3.04,3.96c1.8,0,2.64-.77,2.82-2.54v-.25h-2.42v-1.09Z"/>
    <path class="cls-1" d="M108.24,44.04c1.1-.9,2.25-1.5,3.04-1.67l.15,1.25c-.69.15-2.07.73-3.16,1.59v4.63h-1.25v-7.32h1.16l.06,1.51Z"/>
    <path class="cls-1" d="M112.21,46.21c0-2.49,1.06-3.84,3.28-3.84s3.27,1.35,3.27,3.84-1.05,3.79-3.27,3.79-3.28-1.35-3.28-3.79ZM117.49,46.21c0-1.7-.53-2.73-2-2.73s-2.01,1.03-2.01,2.73.6,2.67,2.01,2.67,2-.97,2-2.67Z"/>
    <path class="cls-1" d="M125.12,49.12c-.52.33-1.46.88-2.34.88-1.47,0-2.4-1.32-2.4-2.83v-4.65h1.25v4.51c0,.87.52,1.81,1.41,1.81.69,0,1.56-.51,2.02-.79v-5.53h1.25v7.32h-1.15l-.03-.72Z"/>
    <path class="cls-1" d="M128.27,42.52h1.17l.04.67c.48-.32,1.46-.83,2.11-.83,2.02,0,2.91,1.25,2.91,3.76s-1.05,3.87-3.02,3.87c-.88,0-1.98-.42-1.98-.42v3.25h-1.24s0-10.32,0-10.32ZM129.51,44.28v4.23s1.04.39,1.8.39c1.33,0,1.92-.99,1.92-2.74,0-1.85-.56-2.64-1.8-2.64-.46,0-1.47.45-1.92.77Z"/>
  </g>
</svg>